<?xml version="1.0" encoding="UTF-8"?><svg xmlns="http://www.w3.org/2000/svg" width="851.31" height="391.07" viewBox="0 0 851.31 391.07"><defs><style>.e{fill:#F6F5F4;}</style></defs><g id="a"/><g id="b"/><g id="c"/><g id="d"><g><g><path class="e" d="M350.62,123.48c2.03,0,3.59,.48,4.67,1.45,1.08,.97,1.61,2.43,1.61,4.38,0,.65-.13,1.37-.38,2.15-.26,.78-.7,1.51-1.32,2.18-.62,.67-1.45,1.23-2.49,1.67-1.04,.44-2.34,.67-3.9,.67h-6.28l-1.84,8.65h-2.81l4.41-21.15h8.32Zm-1.21,10.13c1.54,0,2.71-.4,3.5-1.2s1.18-1.83,1.18-3.1c0-.65-.09-1.2-.28-1.64s-.44-.8-.75-1.07c-.32-.27-.68-.46-1.1-.58-.41-.12-.86-.18-1.33-.18h-5.95l-1.63,7.76h6.37Z"/><path class="e" d="M360.66,130.96c.53-1.55,1.3-2.92,2.29-4.1s2.22-2.13,3.66-2.83c1.44-.7,3.06-1.05,4.86-1.05,1.36,0,2.59,.24,3.69,.73,1.1,.48,2.02,1.15,2.79,1.98,.76,.84,1.34,1.83,1.75,2.98,.41,1.15,.61,2.37,.61,3.67,0,1.66-.26,3.26-.79,4.8-.52,1.54-1.27,2.9-2.25,4.09s-2.17,2.13-3.58,2.83c-1.41,.7-3,1.05-4.75,1.05-2.9,0-5.14-.8-6.71-2.41-1.57-1.61-2.35-3.89-2.35-6.83,0-1.72,.27-3.35,.8-4.9Zm2.4,7.72c.26,.85,.64,1.57,1.16,2.18,.51,.6,1.16,1.07,1.94,1.41,.78,.34,1.7,.5,2.77,.5,1.4,0,2.64-.31,3.7-.92,1.07-.61,1.96-1.41,2.68-2.4,.72-.99,1.26-2.1,1.63-3.35s.55-2.5,.55-3.76c0-.99-.13-1.91-.39-2.75-.26-.85-.64-1.58-1.16-2.21s-1.14-1.12-1.88-1.48c-.74-.37-1.6-.55-2.59-.55-1.48,0-2.77,.31-3.87,.93-1.1,.62-2.01,1.43-2.74,2.41-.73,.99-1.28,2.11-1.64,3.36-.37,1.25-.55,2.52-.55,3.81,0,1.03,.13,1.97,.39,2.81Z"/><path class="e" d="M395.91,123.48c.89,0,1.75,.08,2.59,.25,.84,.17,1.58,.46,2.24,.87,.65,.41,1.17,.97,1.56,1.66,.38,.69,.58,1.56,.58,2.61,0,.71-.12,1.39-.36,2.03-.24,.64-.56,1.22-.98,1.73-.41,.51-.91,.94-1.5,1.27-.58,.34-1.23,.55-1.94,.65v.06c.45,.14,.83,.36,1.14,.65,.31,.3,.54,.65,.71,1.05,.17,.41,.28,.85,.33,1.35,.05,.49,.04,1.01-.01,1.54-.04,.47-.1,.94-.18,1.41-.08,.46-.14,.93-.18,1.39-.04,.46-.04,.91,0,1.35,.04,.43,.17,.86,.38,1.27h-2.93c-.14-.39-.22-.98-.24-1.75-.02-.77,.08-1.7,.3-2.78,.16-.95,.2-1.71,.13-2.3-.07-.58-.21-1.03-.43-1.35-.22-.32-.48-.53-.8-.65-.32-.12-.63-.19-.95-.21h-7.38l-1.9,9.03h-2.81l4.47-21.15h8.15Zm-1.07,9.75c1.11,0,2-.15,2.68-.44s1.21-.66,1.58-1.08c.38-.42,.63-.88,.75-1.36,.13-.48,.19-.91,.19-1.29,0-.65-.12-1.18-.36-1.6-.24-.41-.55-.74-.93-.98-.38-.24-.82-.4-1.32-.49-.49-.09-1.01-.13-1.54-.13h-5.84l-1.57,7.38h6.34Z"/><path class="e" d="M416.41,125.85l-3.97,18.78h-2.81l3.97-18.78h-7.11l.5-2.37h17.06l-.53,2.37h-7.11Z"/><path class="e" d="M447.87,123.48l3.82,21.15h-2.9l-.98-6.37h-8.92l-3.7,6.37h-3.11l12.71-21.15h3.08Zm-.41,12.41l-1.57-9.92h-.06l-5.66,9.92h7.29Z"/><path class="e" d="M468.13,123.48c.89,0,1.75,.08,2.59,.25,.84,.17,1.58,.46,2.24,.87,.65,.41,1.17,.97,1.56,1.66,.38,.69,.58,1.56,.58,2.61,0,.71-.12,1.39-.36,2.03-.24,.64-.56,1.22-.98,1.73-.41,.51-.91,.94-1.5,1.27-.58,.34-1.23,.55-1.94,.65v.06c.45,.14,.83,.36,1.14,.65,.31,.3,.54,.65,.71,1.05,.17,.41,.28,.85,.33,1.35,.05,.49,.04,1.01-.01,1.54-.04,.47-.1,.94-.18,1.41-.08,.46-.14,.93-.18,1.39-.04,.46-.04,.91,0,1.35,.04,.43,.17,.86,.38,1.27h-2.93c-.14-.39-.22-.98-.24-1.75-.02-.77,.08-1.7,.3-2.78,.16-.95,.2-1.71,.13-2.3-.07-.58-.21-1.03-.43-1.35-.22-.32-.48-.53-.8-.65-.32-.12-.63-.19-.95-.21h-7.38l-1.9,9.03h-2.81l4.47-21.15h8.15Zm-1.07,9.75c1.11,0,2-.15,2.68-.44s1.21-.66,1.58-1.08c.38-.42,.63-.88,.75-1.36,.13-.48,.19-.91,.19-1.29,0-.65-.12-1.18-.36-1.6-.24-.41-.55-.74-.93-.98-.38-.24-.82-.4-1.32-.49-.49-.09-1.01-.13-1.54-.13h-5.84l-1.57,7.38h6.34Z"/><path class="e" d="M491.65,123.48l3.82,21.15h-2.9l-.98-6.37h-8.92l-3.7,6.37h-3.11l12.71-21.15h3.08Zm-.41,12.41l-1.57-9.92h-.06l-5.66,9.92h7.29Z"/><path class="e" d="M506.79,123.48l7.55,17.51h.06l3.53-17.51h2.72l-4.47,21.15h-3.02l-7.49-17.39h-.06l-3.58,17.39h-2.73l4.47-21.15h3.02Z"/><path class="e" d="M537.4,127.64c-.23-.56-.55-1.02-.98-1.36-.42-.35-.94-.59-1.55-.73-.61-.14-1.28-.21-2.01-.21-.51,0-1.06,.06-1.63,.19-.57,.13-1.1,.33-1.58,.61-.48,.28-.88,.63-1.2,1.07-.32,.43-.47,.97-.47,1.6,0,.51,.09,.95,.27,1.32,.18,.37,.42,.68,.73,.95,.31,.27,.67,.49,1.1,.67,.42,.18,.87,.34,1.35,.47l2.84,.77c.65,.18,1.28,.4,1.9,.67s1.16,.61,1.63,1.04c.47,.42,.85,.96,1.14,1.61s.43,1.45,.43,2.4c0,1.11-.25,2.06-.76,2.86-.5,.8-1.15,1.46-1.94,1.98-.79,.52-1.67,.91-2.65,1.17s-1.94,.39-2.89,.39c-1.26,0-2.43-.14-3.5-.43s-1.97-.73-2.71-1.32c-.74-.59-1.3-1.36-1.69-2.3-.39-.94-.53-2.06-.43-3.36h2.81c-.04,.95,.07,1.75,.33,2.4,.26,.65,.64,1.18,1.14,1.57,.5,.4,1.11,.68,1.82,.84,.71,.17,1.49,.25,2.34,.25,.65,0,1.3-.08,1.94-.24,.64-.16,1.21-.4,1.7-.73,.49-.33,.89-.75,1.2-1.26,.31-.51,.46-1.13,.46-1.84,0-.53-.1-.99-.3-1.38s-.47-.71-.81-.98c-.35-.27-.75-.49-1.2-.67s-.94-.34-1.45-.47l-2.87-.77c-.63-.18-1.23-.41-1.81-.7-.57-.29-1.08-.64-1.51-1.07-.43-.42-.78-.93-1.04-1.51-.26-.58-.38-1.27-.38-2.06,0-1.03,.23-1.92,.68-2.68,.45-.76,1.04-1.4,1.76-1.91,.72-.51,1.54-.9,2.46-1.16,.92-.26,1.85-.39,2.8-.39,1.05,0,2.04,.13,2.98,.4,.94,.27,1.76,.67,2.47,1.21,.71,.54,1.27,1.24,1.67,2.09,.4,.85,.59,1.87,.55,3.05h-2.81c.02-.83-.08-1.53-.31-2.09Z"/><path class="e" d="M557.59,123.48l3.82,21.15h-2.9l-.98-6.37h-8.92l-3.7,6.37h-3.11l12.71-21.15h3.08Zm-.41,12.41l-1.57-9.92h-.06l-5.66,9.92h7.29Z"/><path class="e" d="M580.09,127.64c-.23-.56-.55-1.02-.98-1.36-.42-.35-.94-.59-1.55-.73-.61-.14-1.28-.21-2.01-.21-.51,0-1.06,.06-1.63,.19-.57,.13-1.1,.33-1.58,.61-.48,.28-.88,.63-1.2,1.07-.32,.43-.47,.97-.47,1.6,0,.51,.09,.95,.27,1.32,.18,.37,.42,.68,.73,.95,.31,.27,.67,.49,1.1,.67,.42,.18,.87,.34,1.35,.47l2.84,.77c.65,.18,1.28,.4,1.9,.67s1.16,.61,1.63,1.04c.47,.42,.85,.96,1.14,1.61s.43,1.45,.43,2.4c0,1.11-.25,2.06-.76,2.86-.5,.8-1.15,1.46-1.94,1.98-.79,.52-1.67,.91-2.65,1.17s-1.94,.39-2.89,.39c-1.26,0-2.43-.14-3.5-.43s-1.97-.73-2.71-1.32c-.74-.59-1.3-1.36-1.69-2.3-.39-.94-.53-2.06-.43-3.36h2.81c-.04,.95,.07,1.75,.33,2.4,.26,.65,.64,1.18,1.14,1.57,.5,.4,1.11,.68,1.82,.84,.71,.17,1.49,.25,2.34,.25,.65,0,1.3-.08,1.94-.24,.64-.16,1.21-.4,1.7-.73,.49-.33,.89-.75,1.2-1.26,.31-.51,.46-1.13,.46-1.84,0-.53-.1-.99-.3-1.38s-.47-.71-.81-.98c-.35-.27-.75-.49-1.2-.67s-.94-.34-1.45-.47l-2.87-.77c-.63-.18-1.23-.41-1.81-.7-.57-.29-1.08-.64-1.51-1.07-.43-.42-.78-.93-1.04-1.51-.26-.58-.38-1.27-.38-2.06,0-1.03,.23-1.92,.68-2.68,.45-.76,1.04-1.4,1.76-1.91,.72-.51,1.54-.9,2.46-1.16,.92-.26,1.85-.39,2.8-.39,1.05,0,2.04,.13,2.98,.4,.94,.27,1.76,.67,2.47,1.21,.71,.54,1.27,1.24,1.67,2.09,.4,.85,.59,1.87,.55,3.05h-2.81c.02-.83-.08-1.53-.31-2.09Z"/><path class="e" d="M590.53,141.34c-.2,.81-.37,1.65-.52,2.52-.15,.87-.38,1.66-.68,2.38-.31,.72-.74,1.33-1.3,1.84-.56,.5-1.36,.79-2.38,.87l.3-1.42c.4-.06,.72-.18,.96-.37,.25-.19,.45-.41,.61-.68s.29-.56,.38-.87c.1-.32,.2-.64,.3-.98h-1.66l.71-3.29h3.29Z"/><path class="e" d="M617.99,125.85l-3.97,18.78h-2.81l3.97-18.78h-7.11l.5-2.37h17.06l-.53,2.37h-7.11Z"/><path class="e" d="M627.94,123.48h3.02l3.91,8.35,6.78-8.35h3.17l-8.71,10.49,5.36,10.66h-2.9l-4.27-8.95-7.23,8.95h-3.2l9.15-11.05-5.09-10.1Z"/></g><g><path class="e" d="M261.13,245.76v-5.04l6.2-.55,1.66-1.61v-55.05l-1.66-1.46-6.6-.5v-5.04h51.82v17.34h-7.11l-1.56-10.03-1.31-1.31h-19.96v25.71h13.86l1.46-1.36,1.01-7.56h6.1v24.1h-6.1l-1.01-7.56-1.46-1.36h-13.86v24.1l1.76,1.61,7.26,.55v5.04h-30.5Z"/><path class="e" d="M331.05,194.55h4.99v44.61l1.51,1.56,5.8,.4v4.64h-27.07v-4.64l5.6-.4,1.46-1.56v-35.64h-6.81v-4.13l14.52-4.84Zm-1.11-23.54c2.25,0,4.1,.71,5.54,2.14,1.45,1.43,2.17,3.23,2.17,5.42s-.71,4.16-2.14,5.62-3.25,2.19-5.47,2.19-3.95-.72-5.39-2.17c-1.45-1.44-2.17-3.26-2.17-5.44s.71-4.07,2.14-5.54c1.43-1.48,3.2-2.22,5.32-2.22Z"/><path class="e" d="M385.49,196.71v13.76h-6.2l-1.01-7.76-1.26-1.16c-1.14-.54-2.29-.94-3.43-1.21-1.14-.27-2.27-.4-3.38-.4-2.49,0-4.42,.55-5.8,1.64-1.38,1.09-2.07,2.61-2.07,4.56,0,1.61,.54,3.01,1.61,4.18,1.08,1.18,3.75,2.81,8.02,4.89l.2,.1c9.91,4.77,14.87,9.63,14.87,14.57,0,5.28-1.87,9.44-5.62,12.48-3.75,3.04-8.9,4.56-15.45,4.56-2.55,0-5.25-.22-8.09-.66-2.84-.44-5.82-1.09-8.95-1.97v-15.27h6.2l1.21,8.87,1.06,1.16c1.34,.71,2.74,1.24,4.18,1.61,1.44,.37,2.94,.55,4.49,.55,2.72,0,4.87-.66,6.43-1.99,1.56-1.33,2.34-3.15,2.34-5.47,0-2.92-2.97-5.73-8.92-8.42-2.02-.91-3.58-1.65-4.69-2.22-4.27-2.12-7.27-4.21-9-6.28-1.73-2.07-2.6-4.51-2.6-7.33,0-4.6,1.84-8.32,5.52-11.14,3.68-2.82,8.6-4.23,14.75-4.23,2.62,0,5.23,.21,7.81,.63,2.59,.42,5.17,1.07,7.76,1.94Z"/><path class="e" d="M407.78,169.49h4.94v31.15c4.13-2.25,7.59-3.86,10.36-4.84,2.77-.97,5.2-1.46,7.28-1.46,4.77,0,8.33,1.42,10.66,4.26,2.33,2.84,3.5,7.13,3.5,12.88v27.68l1.36,1.56,5.44,.4v4.64h-25.31v-4.64l4.44-.4,1.46-1.56v-24.7c0-3.83-.75-6.65-2.24-8.44-1.5-1.8-3.84-2.7-7.03-2.7-1.31,0-2.78,.15-4.41,.45-1.63,.3-3.47,.74-5.52,1.31v34.08l1.56,1.56,4.54,.4v4.64h-25.51v-4.64l5.29-.4,1.41-1.56v-60.8h-7.51v-4.03l15.28-4.84Z"/><path class="e" d="M503.35,232.96v7.66c-3.53,2.02-7.1,3.53-10.7,4.54s-7.2,1.51-10.8,1.51c-7.71,0-13.89-2.37-18.55-7.11s-6.99-11.01-6.99-18.8,2.38-14.22,7.14-19.18c4.76-4.96,10.89-7.44,18.4-7.44,6.8,0,12.08,2.04,15.85,6.12,3.77,4.08,5.65,9.82,5.65,17.22v1.97h-33.83v.3c0,5.88,1.48,10.5,4.44,13.86,2.96,3.36,7.04,5.04,12.22,5.04,2.72,0,5.5-.47,8.33-1.41,2.83-.94,5.77-2.37,8.84-4.29Zm-13.61-19v-1.11c0-4.2-.77-7.42-2.32-9.65-1.55-2.23-3.76-3.35-6.65-3.35-3.16,0-5.7,1.25-7.61,3.76-1.92,2.5-2.96,5.96-3.13,10.36h19.71Z"/><path class="e" d="M509.55,245.76v-4.64l5.49-.4,1.46-1.56v-35.64h-7.46v-4.13l15.17-4.84h4.99l-.45,10.54c1.78-1.88,3.68-3.71,5.7-5.47,2.02-1.76,4.13-3.44,6.35-5.02,.57-.1,1.03-.17,1.39-.2,.35-.03,.66-.05,.93-.05,1.11,0,2.23,.14,3.35,.43,1.13,.29,2.28,.73,3.45,1.34l-1.31,14.27h-5.39c-.77-1.28-1.71-2.22-2.8-2.82s-2.39-.91-3.91-.91c-.87,0-1.92,.24-3.15,.73-1.23,.49-2.61,1.2-4.16,2.14v29.64l1.51,1.56,7.36,.4v4.64h-28.53Z"/><path class="e" d="M601.76,201.35c4-2.29,7.55-4.02,10.66-5.22,3.11-1.19,5.65-1.79,7.64-1.79,4.77,0,8.35,1.43,10.74,4.29,2.39,2.86,3.58,7.14,3.58,12.85v27.68l1.36,1.56,5.44,.4v4.64h-25.36v-4.64l4.44-.4,1.41-1.56v-24.7c0-3.93-.75-6.77-2.24-8.52-1.5-1.75-3.91-2.62-7.23-2.62-1.21,0-2.53,.16-3.96,.48-1.43,.32-3.03,.81-4.81,1.49v33.88l1.31,1.56,4.69,.4v4.64h-24.4v-4.64l4.23-.4,1.46-1.76v-25.1c0-3.66-.74-6.33-2.22-8.02-1.48-1.68-3.83-2.52-7.06-2.52-1.34,0-2.74,.15-4.18,.45-1.45,.3-2.94,.74-4.49,1.31v34.08l1.41,1.56,4.34,.4v4.64h-25.31v-4.64l5.29-.4,1.46-1.56v-35.64h-6.75v-4.13l14.57-4.84h4.99v6.1c3.7-2.18,6.91-3.78,9.63-4.79,2.72-1.01,5.14-1.51,7.26-1.51,2.65,0,4.99,.59,7.01,1.76,2.02,1.18,3.71,2.92,5.09,5.24Z"/><path class="e" d="M677.52,239.87c-3.5,2.39-6.67,4.12-9.53,5.19-2.86,1.08-5.6,1.61-8.22,1.61-3.97,0-7.21-1.25-9.73-3.76-2.52-2.5-3.78-5.72-3.78-9.65,0-4.84,1.85-8.57,5.54-11.19,3.7-2.62,12.32-5.46,25.86-8.52v-3.08c0-3.73-.79-6.45-2.37-8.17-1.58-1.71-4.07-2.57-7.46-2.57-.74,0-1.51,.05-2.32,.15-.81,.1-1.68,.25-2.62,.45v9.68h-9.53c-1.65,0-2.85-.3-3.6-.91-.76-.6-1.13-1.56-1.13-2.87,0-3.23,2.17-6.03,6.5-8.42,4.33-2.39,9.65-3.58,15.96-3.58,7.08,0,12.07,1.36,14.95,4.08s4.33,7.46,4.33,14.22v26.72l1.36,1.46,5.5,.5v4.54h-18.36l-1.36-5.9Zm0-4.23v-16.84c-6.79,1.51-11.43,3.16-13.91,4.94-2.49,1.78-3.73,4.2-3.73,7.26,0,2.39,.69,4.28,2.07,5.67s3.24,2.09,5.6,2.09c1.31,0,2.8-.26,4.46-.78,1.66-.52,3.5-1.3,5.52-2.34Z"/><path class="e" d="M701.47,245.76v-4.64l5.29-.4,1.46-1.56v-35.64h-7.06v-4.13l14.87-4.84h4.99v6.1c3.93-2.18,7.33-3.78,10.18-4.79s5.34-1.51,7.46-1.51c4.71,0,8.22,1.41,10.54,4.23,2.32,2.82,3.48,7.13,3.48,12.91v27.68l1.36,1.56,5.44,.4v4.64h-25.26v-4.64l4.44-.4,1.41-1.56v-24.7c0-3.83-.74-6.65-2.22-8.44-1.48-1.8-3.83-2.7-7.06-2.7-1.24,0-2.68,.15-4.31,.45-1.63,.3-3.45,.74-5.47,1.31v34.08l1.41,1.56,4.54,.4v4.64h-25.51Z"/><path class="e" d="M767.86,204.98l-2.17-3.08c3.16-1.92,5.55-4.07,7.18-6.45,1.63-2.39,2.44-4.96,2.44-7.71,0-.44,0-.76-.02-.98-.02-.22-.04-.43-.08-.63l-6.2-.05c-.67-.8-1.17-1.64-1.49-2.51-.32-.87-.48-1.77-.48-2.71,0-2.14,.65-3.87,1.94-5.17,1.29-1.31,3.02-1.96,5.17-1.96,2.79,0,5.02,.98,6.71,2.94,1.68,1.96,2.52,4.56,2.52,7.78,0,4.36-1.35,8.34-4.06,11.93-2.71,3.59-6.53,6.46-11.47,8.61Z"/><path class="e" d="M827.85,196.71v13.76h-6.2l-1.01-7.76-1.26-1.16c-1.14-.54-2.29-.94-3.43-1.21-1.14-.27-2.27-.4-3.38-.4-2.49,0-4.42,.55-5.8,1.64-1.38,1.09-2.07,2.61-2.07,4.56,0,1.61,.54,3.01,1.61,4.18,1.08,1.18,3.75,2.81,8.02,4.89l.2,.1c9.91,4.77,14.87,9.63,14.87,14.57,0,5.28-1.87,9.44-5.62,12.48-3.75,3.04-8.9,4.56-15.45,4.56-2.55,0-5.25-.22-8.09-.66-2.84-.44-5.82-1.09-8.95-1.97v-15.27h6.2l1.21,8.87,1.06,1.16c1.34,.71,2.74,1.24,4.18,1.61,1.44,.37,2.94,.55,4.49,.55,2.72,0,4.87-.66,6.43-1.99,1.56-1.33,2.34-3.15,2.34-5.47,0-2.92-2.97-5.73-8.92-8.42-2.02-.91-3.58-1.65-4.69-2.22-4.27-2.12-7.27-4.21-9-6.28-1.73-2.07-2.6-4.51-2.6-7.33,0-4.6,1.84-8.32,5.52-11.14,3.68-2.82,8.6-4.23,14.75-4.23,2.62,0,5.23,.21,7.81,.63,2.59,.42,5.17,1.07,7.76,1.94Z"/><path class="e" d="M281.5,345.76l-16.74-62.76-6.5-1.46v-5.04h27.07v5.04l-6.4,.6-.86,1.46,11.59,42.85,14.87-49.96h10.38l15.33,51.12,10.84-43.4-1.26-1.41-6.81-1.26v-5.04h22.48v5.04l-6.5,1.46-15.78,62.76h-10.03l-15.98-52.88-15.68,52.88h-10.03Z"/><path class="e" d="M372.64,269.49h4.94v31.15c4.13-2.25,7.59-3.86,10.36-4.84,2.77-.97,5.2-1.46,7.28-1.46,4.77,0,8.33,1.42,10.66,4.26,2.33,2.84,3.5,7.13,3.5,12.88v27.68l1.36,1.56,5.44,.4v4.64h-25.31v-4.64l4.44-.4,1.46-1.56v-24.7c0-3.83-.75-6.65-2.24-8.44-1.5-1.8-3.84-2.7-7.03-2.7-1.31,0-2.78,.15-4.41,.45-1.63,.3-3.47,.74-5.52,1.31v34.08l1.56,1.56,4.54,.4v4.64h-25.51v-4.64l5.29-.4,1.41-1.56v-60.8h-7.51v-4.03l15.28-4.84Z"/><path class="e" d="M452.74,339.87c-3.5,2.39-6.67,4.12-9.53,5.19-2.86,1.08-5.6,1.61-8.22,1.61-3.97,0-7.21-1.25-9.73-3.76-2.52-2.5-3.78-5.72-3.78-9.65,0-4.84,1.85-8.57,5.54-11.19,3.7-2.62,12.32-5.46,25.86-8.52v-3.08c0-3.73-.79-6.45-2.37-8.17-1.58-1.71-4.07-2.57-7.46-2.57-.74,0-1.51,.05-2.32,.15-.81,.1-1.68,.25-2.62,.45v9.68h-9.53c-1.65,0-2.85-.3-3.6-.91-.76-.6-1.13-1.56-1.13-2.87,0-3.23,2.17-6.03,6.5-8.42,4.33-2.39,9.65-3.58,15.96-3.58,7.08,0,12.07,1.36,14.95,4.08s4.33,7.46,4.33,14.22v26.72l1.36,1.46,5.5,.5v4.54h-18.36l-1.36-5.9Zm0-4.23v-16.84c-6.79,1.51-11.43,3.16-13.91,4.94-2.49,1.78-3.73,4.2-3.73,7.26,0,2.39,.69,4.28,2.07,5.67s3.24,2.09,5.6,2.09c1.31,0,2.8-.26,4.46-.78,1.66-.52,3.5-1.3,5.52-2.34Z"/><path class="e" d="M476.49,345.76v-4.64l5.49-.4,1.46-1.56v-35.64h-7.46v-4.13l15.17-4.84h4.99l-.45,10.54c1.78-1.88,3.68-3.71,5.7-5.47,2.02-1.76,4.13-3.44,6.35-5.02,.57-.1,1.03-.17,1.39-.2,.35-.03,.66-.05,.93-.05,1.11,0,2.23,.14,3.35,.43,1.13,.29,2.28,.73,3.45,1.34l-1.31,14.27h-5.39c-.77-1.28-1.71-2.22-2.8-2.82s-2.39-.91-3.91-.91c-.87,0-1.92,.24-3.15,.73-1.23,.49-2.61,1.2-4.16,2.14v29.64l1.51,1.56,7.36,.4v4.64h-28.53Z"/><path class="e" d="M520.14,345.76v-4.74l5.19-.5,1.46-1.66v-35.84h-6.65v-3.93l6.65-3.08c0-5.01,.87-9.38,2.61-13.11s4.38-6.91,7.92-9.53c1.89-1.38,3.9-2.44,6.03-3.2,2.13-.76,4.29-1.13,6.48-1.13,2.96,0,5.32,.69,7.08,2.07,1.76,1.38,2.65,3.21,2.65,5.5,0,1.41-.51,2.66-1.54,3.76-1.03,1.09-2.51,1.98-4.46,2.65l-10.03-8.87c-1.34,1.38-2.35,3.38-3.02,6-.67,2.62-1.01,5.85-1.01,9.68v7.01h14.06v6.2h-14.06v35.94l1.66,1.56,6.91,.5v4.74h-27.93Z"/></g><g><g><path class="e" d="M308.5,142.97c-5.53-17.72-14.56-34.22-26.74-48.64-1.32,.41-2.65,.82-3.99,1.23,11.84,13.71,21.01,29.79,26.71,47.41,1.32,0,2.66,0,4.02,0Z"/><path class="e" d="M36.74,185.12c0-60.3,39.1-111.63,93.28-129.98-.44-.95-1.57-1.97-3.03-3-19.62,6.91-37.6,18.17-52.74,33.31-26.62,26.62-41.29,62.02-41.29,99.67s14.66,73.05,41.29,99.67c20.02,20.02,45.01,33.28,72.18,38.62-.91-1.55-1.76-3.03-2.53-4.42-61.26-13.73-107.17-68.53-107.17-133.87Z"/><path class="e" d="M233.88,308.49c-16,7.8-33.72,12.6-52.44,13.61,.58,1.18,1.21,2.4,1.88,3.66,17.97-1.17,35.28-5.74,51.21-13.34-.21-1.28-.43-2.59-.65-3.94Z"/><path class="e" d="M263.07,75.91c-25.1-20.56-56.26-31.75-89.14-31.75-5.83,0-11.6,.35-17.3,1.05,2.48,.92,5.02,1.95,7.61,3.07,3.2-.22,6.43-.35,9.68-.35,31.74,0,60.99,10.84,84.26,29,1.35-.27,2.99-.62,4.88-1.03Z"/></g><path class="e" d="M360.8,61.46c-.41,.47-.86,.66-1.32,.81-7.81,2.51-55.46,16.77-63.29,19.22-11.93,3.74-23.89,7.35-35.81,11.14-3.34,1.06-24.76,8.33-37.63,12.59-14.96,4.95-12.19-9.91,.73-8.09-1.13-1.94-5.61-3.98-14.53-2.98-14.25,1.59-31.49,6.11-56.02,20.92-15.36-1.19-28.64-.9-39.71,.69,15.5-13.52,25.45-19.49,29.86-35.23,2.74-9.77,1.47-27.86-9.15-32.34,12.34-.78,45.24,13.5,66.51,31.03,14.87,6.01,37.58,9.12,50.43,7.22,3.29-.48,4.93-.89,7.4-1.36,16.54-3.15,98.18-22.8,102.53-23.61ZM99.59,189.94c.52-21.48,10.37-41.09,26.59-52.19-9.49-1.89-25.05-2.93-32.09-2.74-15.57,20.19-19.76,57.64-3.62,96.18-.29-17.92,3.13-30.52,9.12-41.25Zm89.95-61.81c-64.2-18.55-109.59,2.59-109.59,2.59,38.77-3.49,65.74,3.75,80.75,9.83-20.82,11-35.51,24.66-49.41,45.38-22.76,43.89-6.69,71.66-2.71,78.8,12.38,22.19,26.91,31.62,36.59,39.2l.11,.09s7.5,17.11,20,32.91c17.55,22.17,38.8,29.26,38.8,29.26-29.51-29.48-36.51-55.9-37.37-62.18-1.39-10.1,2.72-8.78,2.2-15.04s-6.05-4.59-5.59-17.49c.19-5.28,.05-15.72,2.97-24.59,6.06-18.42,16.32-30.61,23.01-37.15-7.46,2.74-21.16,12.65-32.16,29.63-10.9,16.83-13.89,31.55-14.92,38.93-7.04-5.35-13.69-12.05-16.97-17.87-6.18-10.96-11.28-23.11-10.08-36.01,3.31-35.34,30.69-54.37,48.51-62.34,5.73-2.56,24.59-11.54,45.41-14.15,8.07-20.87,40.32-41.55,40.69-41.84-9.56,3.05-41.42,15.27-60.24,22.06Z"/></g></g></g></svg>